<svg xmlns="http://www.w3.org/2000/svg" xml:space="preserve" width="2000" height="148" data-id="lg_Au0fFECBrrfJnAUghy" data-version="1" viewBox="0 0 2000 148"><g data-padding="20"><g transform="translate(10 2.648)scale(.96422)"><rect width="233.877" height="83.62" x="305.202" y="-42.364" fill="none" rx="0" ry="0" transform="translate(351.88 74.98)scale(1.77)"/><path fill="#111" d="M919.299 115.64q-12.04 0-17.41-3.81-5.38-3.81-5.7-12.58-.32-4.87-.23-8.84.1-3.97.42-8.9h8.64q-.38 4.93-.35 9.8t.35 9.41q.32 3.72 3.53 5.48 3.2 1.76 10.56 1.76 7.24 0 10.28-1.76t3.42-5.48q.32-4.54.29-7.9-.03-3.37-.29-8.36-.25-3.97-2.08-6.66-1.82-2.69-8.1-3.52l-9.15-1.67q-7.24-1.21-10.86-3.55t-4.93-6.02-1.57-9q-.19-3.52-.13-7.52.07-4 .26-7.78.13-8.71 5.35-12.46 5.22-3.74 17.51-3.74 11.33 0 16.49 3.78 5.15 3.77 5.47 12.48.2 3.01.13 7.46-.06 4.45-.25 9.19h-8.71q.45-4.54.45-9.09t-.32-9.03q-.26-3.65-3.37-5.38-3.1-1.73-10.08-1.73-7.24 0-10.34 1.73-3.11 1.73-3.43 5.38-.32 4.1-.29 8.32.04 4.23.29 8.39.26 4.68 2.02 7.14 1.76 2.47 8.35 3.24l8.97 1.41q7.24 1.08 10.89 3.52 3.65 2.43 4.96 6.18 1.31 3.74 1.5 8.93.32 4.74.26 7.68-.07 2.95-.39 7.11-.44 8.77-5.66 12.58t-16.75 3.81m54.83 0q-12.04 0-17.42-3.81t-5.7-12.58q-.32-4.87-.22-8.84.09-3.97.41-8.9h8.65q-.39 4.93-.36 9.8.04 4.87.36 9.41.32 3.72 3.52 5.48t10.56 1.76q7.24 0 10.28-1.76t3.43-5.48q.32-4.54.28-7.9-.03-3.37-.28-8.36-.26-3.97-2.08-6.66-1.83-2.69-8.1-3.52l-9.16-1.67q-7.24-1.21-10.86-3.55-3.61-2.34-4.93-6.02-1.31-3.68-1.56-9-.2-3.52-.13-7.52.06-4 .25-7.78.13-8.71 5.35-12.46 5.22-3.74 17.51-3.74 11.34 0 16.49 3.78 5.16 3.77 5.48 12.48.19 3.01.12 7.46-.06 4.45-.25 9.19h-8.71q.45-4.54.45-9.09t-.32-9.03q-.26-3.65-3.36-5.38-3.11-1.73-10.09-1.73-7.23 0-10.34 1.73t-3.43 5.38q-.32 4.1-.28 8.32.03 4.23.28 8.39.26 4.68 2.02 7.14 1.76 2.47 8.36 3.24l8.96 1.41q7.24 1.08 10.89 3.52 3.65 2.43 4.96 6.18 1.31 3.74 1.51 8.93.32 4.74.25 7.68-.06 2.95-.38 7.11-.45 8.77-5.67 12.58t-16.74 3.81m42.58-26.19-3.97 25.36h-9.1l14.48-91.44h18.31l14.6 91.44h-9.09l-3.97-25.36Zm8.13-57.88-4.42 29.77-2.88 19.92h19.59l-2.75-19.98-4.48-29.71Zm97.45 75.04v8.2h-37.2V23.37h8.9v83.24Zm16.71-17.16-3.97 25.36h-9.09l14.47-91.44h18.31l14.6 91.44h-9.09l-3.97-25.36Zm8.13-57.88-4.41 29.77-2.89 19.92h19.6l-2.76-19.98-4.48-29.71Zm56.3 83.24h-21.71V23.37h21.52q12.1 0 17.54 3.72 5.45 3.71 5.77 12.29.38 9.54 0 16.33-.45 9.47-11.02 11.97v2.18q5.7 1.28 8.33 4.19 2.62 2.92 2.81 7.98.32 4.48.32 8.35 0 3.88-.32 8.42-.32 8.52-5.79 12.26-5.48 3.75-17.45 3.75m-.19-83.24h-12.62v33.04h12.49q7.43 0 10.82-2.24t3.71-6.92q.84-8.26 0-16.52-.32-3.78-3.71-5.57t-10.69-1.79m-.9 41.23h-11.72v33.81h12.81q7.24 0 10.69-1.95 3.46-1.95 3.65-5.99.64-8.13 0-16.26-.19-5.25-3.81-7.43t-11.62-2.18m57.04 42.84q-12.03 0-17.41-3.81t-5.7-12.58q-.32-4.87-.23-8.84.1-3.97.42-8.9h8.65q-.39 4.93-.36 9.8t.36 9.41q.32 3.72 3.52 5.48t10.56 1.76q7.24 0 10.28-1.76t3.43-5.48q.32-4.54.28-7.9-.03-3.37-.28-8.36-.26-3.97-2.09-6.66-1.82-2.69-8.1-3.52l-9.15-1.67q-7.24-1.21-10.86-3.55-3.61-2.34-4.93-6.02-1.31-3.68-1.57-9-.19-3.52-.12-7.52.06-4 .25-7.78.13-8.71 5.35-12.46 5.22-3.74 17.51-3.74 11.34 0 16.49 3.78 5.16 3.77 5.48 12.48.19 3.01.12 7.46-.06 4.45-.25 9.19h-8.71q.45-4.54.45-9.09t-.32-9.03q-.26-3.65-3.36-5.38-3.11-1.73-10.09-1.73-7.24 0-10.34 1.73-3.11 1.73-3.43 5.38-.32 4.1-.29 8.32.04 4.23.29 8.39.26 4.68 2.02 7.14 1.76 2.47 8.36 3.24l8.96 1.41q7.24 1.08 10.89 3.52 3.65 2.43 4.96 6.18 1.31 3.74 1.5 8.93.32 4.74.26 7.68-.06 2.95-.38 7.11-.45 8.77-5.67 12.58t-16.75 3.81m-478.3-29.767a2.38 2.38 0 0 1-1.78-.795l-18.97-21.21a2.385 2.385 0 0 1 0-3.18l18.97-20.925a2.392 2.392 0 1 1 3.546 3.212l-17.522 19.319 17.522 19.604a2.385 2.385 0 0 1-1.765 3.975m54.155 0a2.385 2.385 0 0 1-1.78-3.975l17.537-19.604-17.523-19.319a2.386 2.386 0 1 1 3.53-3.212l18.969 20.909a2.385 2.385 0 0 1 0 3.196l-18.937 21.21a2.38 2.38 0 0 1-1.781.795m-42.118-9.953a3.975 3.975 0 1 0 0 7.95 3.975 3.975 0 1 0 0-7.95m15.025 0a3.975 3.975 0 1 0 0 7.95 3.975 3.975 0 1 0 0-7.95m14.978 0a3.975 3.975 0 1 0 0 7.95 3.975 3.975 0 1 0 0-7.95"/><path fill="#111" d="M808.157 123.143c-33.485 0-60.738-27.253-60.738-60.738s27.253-60.722 60.754-60.722a60.802 60.802 0 0 1 55.49 85.43 2.385 2.385 0 1 1-4.355-1.94A56.016 56.016 0 0 0 808.173 6.47c-30.887.026-55.923 25.047-55.968 55.935a56.016 56.016 0 0 0 77.322 51.738 2.385 2.385 0 0 1 1.829 4.405 60.4 60.4 0 0 1-23.183 4.595m71.105 20.829c-2.385 0-4.61-.907-6.344-2.56a2.385 2.385 0 0 1 3.307-3.435 4.34 4.34 0 0 0 6.185-.127 4.373 4.373 0 0 0-.127-6.185 2.385 2.385 0 0 1 3.307-3.434 9.158 9.158 0 0 1-6.153 15.74Z"/><path fill="#111" d="M846.683 118.293q-.652 0-1.336-.063a16.695 16.695 0 0 1-15.327-17.967c.286-2.497 2.099-6.01 5.978-6.01h.318c4.102.206 5.979 3.545 5.994 6.789.032 2.29 1.416 4.706 4.007 4.913a4.39 4.39 0 0 0 4.707-4.007c.27-3.418-3.276-4.515-4.357-4.77a6.84 6.84 0 0 1-5.2-6.042 5.772 5.772 0 0 1 6.71-6.153c9.318 1.463 15.82 9.174 15.137 17.935a20.7 20.7 0 0 1-.636 3.975 2.385 2.385 0 1 1-4.563-1.351 17.5 17.5 0 0 0 .445-3.006c.493-6.36-4.181-11.766-11.13-12.847a1.11 1.11 0 0 0-.89.27c-.16.16-.35.414-.318.843.08 1.066 1.16 1.654 1.51 1.75 5.263 1.208 8.427 5.055 8.046 9.762a9.16 9.16 0 0 1-9.842 8.395c-4.818-.382-8.348-4.436-8.396-9.635 0-1.988-1.065-2.036-1.462-2.067h-.048c-1.05 0-1.272 1.7-1.272 1.717a11.925 11.925 0 0 0 15.964 12.084 2.385 2.385 0 1 1 1.62 4.484 15.9 15.9 0 0 1-5.643 1.001"/><path fill="#111" d="M874.572 142.016a2.4 2.4 0 0 1-1.75-.763l-22.863-24.343a2.385 2.385 0 0 1 3.482-3.26l22.865 24.328a2.385 2.385 0 0 1-1.75 4.038m9.572-9.524a2.38 2.38 0 0 1-1.702-.7l-23.707-23.881a2.385 2.385 0 0 1 3.387-3.355l23.69 23.866a2.385 2.385 0 0 1-1.684 4.07"/></g><path fill="transparent" stroke="transparent" d="M720.5 0h559v148h-559z"/></g></svg>